<?xml version="1.0" standalone="no"?>
<!DOCTYPE svg PUBLIC "-//W3C//DTD SVG 20010904//EN"
 "http://www.w3.org/TR/2001/REC-SVG-20010904/DTD/svg10.dtd">
<svg version="1.0" xmlns="http://www.w3.org/2000/svg"
 width="816.000000pt" height="816.000000pt" viewBox="0 0 816.000000 816.000000"
 preserveAspectRatio="xMidYMid meet">
<metadata>
Created by potrace 1.11, written by Peter Selinger 2001-2013
</metadata>
<g transform="translate(0.000000,816.000000) scale(0.100000,-0.100000)"
fill="#000000" stroke="none">
<path d="M4888 7844 c-3 -2 -54 -6 -114 -9 -116 -4 -218 -14 -309 -31 -10 -2
-37 -6 -60 -9 -22 -4 -58 -11 -80 -17 -22 -5 -50 -12 -61 -14 -12 -2 -53 -14
-90 -25 -38 -12 -73 -22 -79 -24 -13 -3 -58 -19 -150 -55 -56 -22 -218 -99
-277 -132 -37 -21 -72 -38 -77 -38 -5 0 -11 -4 -13 -8 -1 -4 -34 -27 -73 -51
-38 -24 -89 -59 -112 -77 -23 -19 -46 -34 -51 -34 -6 0 -12 -3 -14 -7 -1 -5
-37 -35 -78 -68 -159 -126 -380 -345 -507 -501 -17 -21 -39 -49 -50 -61 -10
-11 -25 -31 -33 -43 -8 -12 -23 -32 -34 -43 -34 -40 -182 -251 -237 -337 -29
-47 -57 -86 -61 -88 -5 -2 -8 -7 -8 -12 0 -4 -19 -38 -41 -76 -23 -37 -53 -88
-67 -113 -14 -25 -38 -68 -54 -96 -51 -92 -196 -389 -240 -495 -50 -117 -60
-143 -63 -150 -1 -3 -6 -16 -12 -30 -6 -14 -20 -52 -32 -85 -12 -33 -25 -67
-28 -75 -3 -8 -7 -17 -8 -20 0 -3 -20 -65 -44 -137 -23 -73 -44 -138 -45 -145
-2 -7 -6 -20 -9 -28 -3 -8 -8 -26 -11 -40 -4 -14 -18 -70 -32 -125 -25 -96
-29 -110 -39 -156 -2 -11 -6 -28 -9 -37 -3 -9 -8 -34 -12 -56 -3 -21 -8 -48
-11 -60 -10 -44 -28 -140 -39 -211 -4 -27 -8 -55 -10 -62 -2 -12 -13 -80 -19
-123 -2 -14 -6 -54 -9 -90 -4 -36 -8 -75 -10 -85 -4 -19 -15 -151 -22 -245 -1
-25 -5 -129 -8 -233 -4 -103 -7 -191 -7 -195 -1 -4 -1 -9 0 -12 1 -3 4 -79 6
-170 4 -158 7 -204 20 -329 7 -74 12 -114 22 -181 4 -30 8 -59 9 -65 0 -5 4
-28 9 -50 4 -22 9 -47 10 -55 42 -219 132 -512 193 -625 9 -16 15 -31 14 -33
-2 -1 17 -42 41 -90 215 -433 528 -758 928 -965 90 -46 254 -117 272 -117 3 0
16 -4 29 -9 13 -5 25 -9 28 -9 3 0 19 -6 35 -12 17 -7 41 -14 55 -16 14 -3 36
-9 50 -14 25 -8 170 -38 226 -45 16 -2 29 -4 29 -5 0 -1 14 -3 30 -4 17 -2 58
-6 93 -10 116 -14 337 -20 353 -10 4 2 10 0 14 -6 4 -6 11 -7 17 -4 6 4 45 8
87 9 72 2 174 11 251 20 19 3 58 7 85 10 141 17 605 126 650 153 6 4 15 7 20
8 30 7 201 70 206 77 3 5 8 8 10 7 27 -10 514 224 664 319 22 14 43 25 46 26
3 0 38 21 78 48 40 26 77 47 82 47 5 0 9 3 9 8 0 4 17 16 38 27 20 11 46 28
56 38 11 9 23 17 27 17 4 0 14 6 21 13 7 7 29 22 48 34 28 17 185 131 235 170
6 5 42 33 80 63 39 30 72 58 73 62 2 5 10 8 17 8 11 0 17 65 15 185 0 11 0 31
1 45 0 14 0 32 0 40 -1 8 -1 26 0 40 0 14 0 32 0 40 -1 8 -1 26 0 40 0 14 0
32 0 40 -1 8 -1 26 0 40 0 14 0 32 0 40 -1 8 -1 26 0 40 0 14 0 32 0 40 -1 8
-1 26 0 40 0 14 0 31 0 38 -2 19 -2 33 -1 92 0 30 0 63 -1 73 0 9 1 38 1 63 1
25 -1 48 -4 51 -3 3 -38 -26 -78 -65 -180 -174 -273 -260 -387 -357 -13 -11
-31 -27 -40 -36 -9 -8 -52 -44 -96 -79 -44 -36 -85 -69 -91 -75 -6 -5 -23 -19
-38 -30 -16 -11 -33 -25 -40 -30 -12 -11 -175 -130 -216 -157 -14 -10 -44 -31
-68 -48 -23 -16 -45 -30 -47 -30 -3 0 -27 -15 -53 -33 -26 -18 -72 -47 -102
-63 -30 -16 -57 -31 -60 -34 -21 -21 -327 -169 -385 -186 -5 -2 -41 -15 -80
-29 -111 -42 -317 -99 -395 -110 -14 -2 -25 -4 -25 -5 0 -2 -33 -8 -80 -15
-22 -3 -49 -7 -61 -9 -133 -26 -532 -26 -644 0 -14 3 -36 7 -50 8 -61 7 -227
61 -332 110 -205 95 -418 274 -548 461 -19 28 -37 52 -40 55 -10 9 -90 139
-90 146 0 3 -9 19 -21 35 -11 16 -22 35 -23 42 -2 7 -15 39 -31 72 -15 33 -36
85 -47 115 -12 30 -25 61 -31 68 -5 6 -7 12 -4 12 4 0 -1 19 -9 43 -9 23 -17
47 -18 52 -2 6 -8 28 -14 50 -13 47 -16 60 -41 185 -51 253 -65 410 -65 745 0
197 9 424 19 487 2 13 6 50 10 83 13 128 16 151 21 180 3 17 7 39 9 50 10 70
19 124 41 230 20 101 34 159 68 295 2 8 10 35 17 60 7 25 13 50 15 56 4 22 57
189 63 199 3 6 7 20 9 32 1 12 9 34 17 50 8 15 15 33 15 40 0 7 6 27 14 45 8
18 25 60 37 93 13 33 27 64 31 70 4 5 8 15 8 23 0 8 18 52 40 98 22 47 40 87
40 90 0 11 170 344 219 428 28 49 51 92 51 97 0 4 7 14 15 22 8 8 26 37 41 63
15 27 37 63 50 81 13 17 24 36 24 40 0 5 8 18 18 29 9 10 26 33 36 49 28 44
153 212 206 275 202 245 465 471 655 565 22 11 43 24 46 28 3 5 9 8 13 8 3 -1
19 5 34 13 79 41 265 95 392 114 76 11 331 7 390 -7 108 -26 191 -59 247 -98
17 -13 34 -23 37 -23 3 0 25 -19 48 -42 134 -132 196 -261 243 -508 25 -129
25 -481 0 -612 -3 -13 -7 -34 -9 -48 -3 -14 -8 -43 -11 -65 -9 -61 -60 -248
-98 -360 -84 -247 -220 -526 -358 -737 -121 -185 -255 -324 -364 -377 -176
-85 -336 -49 -405 92 -16 34 -33 78 -37 97 -10 46 -10 265 0 310 5 19 12 53
17 75 13 57 95 302 190 570 108 302 102 279 79 304 -23 24 -65 33 -156 33
-257 1 -443 -70 -599 -228 -61 -62 -152 -193 -158 -227 -1 -7 -7 -21 -13 -32
-13 -25 -59 -169 -67 -210 -4 -16 -9 -41 -12 -55 -21 -99 -29 -209 -29 -395 1
-182 7 -263 26 -312 5 -13 6 -23 4 -23 -3 0 9 -37 25 -82 29 -79 100 -213 138
-260 41 -50 156 -160 195 -185 23 -15 44 -31 47 -34 3 -3 39 -22 80 -42 79
-37 187 -72 257 -82 23 -3 57 -8 75 -11 69 -9 282 -4 358 10 503 91 929 449
1277 1071 56 100 142 282 188 395 65 159 163 480 148 480 -3 0 0 7 7 15 7 8
10 15 7 15 -3 0 0 19 5 43 12 53 16 73 22 117 3 19 7 44 10 56 2 11 7 47 10
80 4 32 9 84 12 114 8 71 15 179 14 205 -1 11 -1 27 -1 35 3 94 -6 312 -14
350 -4 14 -8 41 -11 60 -3 19 -6 42 -8 50 -1 8 -6 33 -10 55 -4 22 -10 47 -13
55 -3 8 -8 24 -10 35 -5 28 -42 137 -53 157 -6 10 -10 25 -10 33 0 8 -5 15
-11 15 -6 0 -9 6 -6 14 3 8 -1 20 -9 26 -8 7 -14 18 -14 24 0 20 -111 198
-167 269 -143 179 -311 314 -508 408 -93 44 -223 92 -277 103 -13 2 -43 9 -68
15 -25 7 -61 14 -80 16 -19 2 -51 7 -70 10 -19 3 -79 7 -132 9 -54 3 -101 7
-106 10 -5 3 -12 3 -14 0z"/>
</g>
</svg>
